<svg fill="none" height="50" viewBox="0 0 50 50" width="50" xmlns="http://www.w3.org/2000/svg"><g fill="#4aa9ff"><circle cx="25" cy="25" fill-opacity=".1" r="25"/><path d="m37.4389 19.4102c-.2391-1.2755-1.3782-2.2044-2.7-2.4944-1.9782-.4056-5.6391-.6956-9.6-.6956-3.9586 0-7.6782.29-9.6586.6956-1.3196.29-2.461 1.16-2.7 2.4944-.2414 1.45-.4805 3.48-.4805 6.09s.2391 4.64.5391 6.09c.2414 1.2756 1.3804 2.2045 2.7 2.4945 2.1.4055 5.7.6955 9.6609.6955s7.5609-.29 9.6609-.6955c1.3196-.29 2.4586-1.16 2.7-2.4945.2391-1.45.5391-3.5389.6-6.09-.1218-2.61-.4218-4.64-.7218-6.09zm-15.5391 10.15v-8.12l7.3195 4.06z"/></g></svg>