<svg fill="none" height="50" viewBox="0 0 50 50" width="50" xmlns="http://www.w3.org/2000/svg"><g fill="#4aa9ff"><circle cx="25" cy="25" fill-opacity=".1" r="25"/><path d="m25.4199 14c4.7518 0 7.1274.0004 8.6035 1.4766 1.4762 1.4761 1.4766 3.8517 1.4766 8.6035v.8398c0 4.7518-.0004 7.1274-1.4766 8.6035-1.4761 1.4762-3.8517 1.4766-8.6035 1.4766h-.8398c-4.7518 0-7.1274-.0004-8.6035-1.4766-1.4762-1.4761-1.4766-3.8517-1.4766-8.6035v-.8398c0-4.7518.0004-7.1274 1.4766-8.6035 1.4761-1.4762 3.8517-1.4766 8.6035-1.4766zm-7.376 6.3877c.1138 5.4599 2.8437 8.7412 7.6299 8.7412h.2715v-3.124c1.7586.1751 3.0884 1.4616 3.6221 3.124h2.4853c-.6825-2.485-2.4766-3.8588-3.5966-4.3838 1.1199-.6475 2.6949-2.2225 3.0712-4.3574h-2.2578c-.49 1.7323-1.9418 3.3071-3.3242 3.4561v-3.4561h-2.2578v6.0547c-1.4-.35-3.1673-2.0473-3.2461-6.0547z"/></g></svg>