<svg fill="none" height="50" viewBox="0 0 50 50" width="50" xmlns="http://www.w3.org/2000/svg" xmlns:xlink="http://www.w3.org/1999/xlink"><linearGradient id="a" gradientUnits="userSpaceOnUse" x1="5.41667" x2="40.4167" y1="7.5" y2="50"><stop offset=".264573" stop-color="#4aa9ff"/><stop offset="1" stop-color="#4ad5ff"/></linearGradient><linearGradient id="b" gradientUnits="userSpaceOnUse" x1="36.3718" x2="12.0793" y1="21.6232" y2="35.5047"><stop offset="0" stop-color="#fff"/><stop offset=".762657" stop-color="#fff" stop-opacity=".25"/></linearGradient><clipPath id="c"><rect height="50" rx="12" width="50"/></clipPath><g clip-path="url(#c)"><rect fill="url(#a)" height="50" rx="12" width="50"/><path d="m41.9858 23.6779.7719-4.6689-2.3344-.386.3859-2.3345-2.3344-.3859.3859-2.3345-2.3344-.3859.3859-2.3345-2.3344-.386.3859-2.33442-4.6689-.77193-.7719 4.66895 2.3345.3859-.386 2.3345 2.3345.3859-.386 2.3345-9.3378-1.5438-.386 2.3344-4.6689-.7719-.386 2.3344-2.3344-.3859-.772 4.6689-2.3344-.386-2.7018 16.3412 4.669.772 2.3157-14.0068 2.3345.386.7719-4.6689 4.6689.7719.386-2.3345 7.0034 1.1579-.386 2.3345-2.3344-.386-.386 2.3345-2.3345-.386-.7719 4.6689 4.6689.772.386-2.3345 2.3344.386.386-2.3345 2.3345.386.3859-2.3345 2.3345.386.3859-2.3345" fill="url(#b)"/></g></svg>