<svg fill="none" height="35" viewBox="0 0 128 35" width="128" xmlns="http://www.w3.org/2000/svg"><path d="m.2 13v-11.2h10.512v11.2h-3.136v-9.392l.704.704h-5.648l.688-.704v9.392zm16.5543.144c-1.0241 0-1.9201-.192-2.6881-.576-.7573-.3947-1.3493-.928-1.776-1.6-.416-.6827-.624-1.456-.624-2.32s.2027-1.632.608-2.304c.416-.68267.9867-1.21067 1.712-1.584.7254-.384 1.5414-.576 2.448-.576.8534 0 1.6321.176 2.336.528.704.34133 1.264.848 1.68 1.52.4161.672.6241 1.488.6241 2.448 0 .10667-.0054.22933-.016.368-.0107.13867-.0214.26667-.0321.384h-6.864v-1.6h5.248l-1.152.448c.0107-.39467-.064-.736-.224-1.024-.1493-.288-.3626-.512-.64-.672-.2666-.16-.5813-.24-.944-.24-.3626 0-.6826.08-.96.24-.2666.16-.4746.38933-.624.688-.1493.288-.224.62933-.224 1.024v.464c0 .42667.0854.79467.256 1.104.1814.3093.4374.5493.768.72.3307.16.7254.24 1.184.24.4267 0 .7894-.0587 1.0881-.176.3093-.128.6133-.32.912-.576l1.5999 1.664c-.416.4587-.9279.8107-1.536 1.056-.6079.2347-1.3279.352-2.1599.352zm10.7426 0c-.736 0-1.3654-.16-1.888-.48-.5227-.3307-.9227-.8213-1.2-1.472-.2667-.6613-.4-1.504-.4-2.528 0-1.03467.128-1.87733.384-2.528.256-.66133.64-1.152 1.152-1.472.5226-.32 1.1733-.48 1.952-.48.7893 0 1.504.18667 2.144.56.6506.36267 1.1626.88 1.536 1.552.384.66133.576 1.45067.576 2.368s-.192 1.712-.576 2.384c-.3734.672-.8854 1.1893-1.536 1.552-.64.3627-1.3547.544-2.144.544zm-5.456 2.96v-11.776h2.896v1.472l-.016 2.864.16 2.88v4.56zm4.816-5.376c.3413 0 .6453-.08.912-.24.2773-.16.496-.3947.656-.704.1706-.30933.256-.68267.256-1.12s-.0854-.81067-.256-1.12c-.16-.30933-.3787-.544-.656-.704-.2667-.16-.5707-.24-.912-.24-.3414 0-.6507.08-.928.24-.2667.16-.4854.39467-.656.704-.16.30933-.24.68267-.24 1.12s.08.81067.24 1.12c.1706.3093.3893.544.656.704.2773.16.5866.24.928.24zm5.7159 2.272v-8.672h4.656c1.12 0 1.9946.19733 2.624.592.6293.384.944.93867.944 1.664 0 .69333-.2934 1.248-.88 1.664-.576.40533-1.3547.608-2.336.608l.272-.64c1.056 0 1.8506.19733 2.384.592.544.384.816.94933.816 1.696 0 .768-.2987 1.376-.896 1.824-.5867.448-1.488.672-2.704.672zm2.72-1.968h1.888c.3733 0 .6506-.064.832-.192.1813-.1387.272-.3413.272-.608 0-.27733-.0907-.48-.272-.608-.1707-.128-.4374-.192-.8-.192h-1.92zm0-3.216h1.664c.3626 0 .6293-.064.8-.192.1706-.13867.256-.336.256-.592s-.0854-.44267-.256-.56c-.1707-.128-.4374-.192-.8-.192h-1.664zm11.7916 5.184v-1.616l-.208-.4v-2.976c0-.48-.1494-.848-.448-1.104-.288-.26667-.752-.4-1.392-.4-.416 0-.8374.06933-1.264.208-.4267.128-.7894.30933-1.088.544l-1.024-2.064c.4906-.32 1.0773-.56533 1.76-.736.6933-.18133 1.3813-.272 2.064-.272 1.408 0 2.496.32533 3.264.976.7786.64 1.168 1.648 1.168 3.024v4.816zm-2.56.144c-.6934 0-1.28-.1173-1.76-.352s-.848-.5547-1.104-.96c-.2454-.4053-.368-.8587-.368-1.36 0-.53333.1333-.992.4-1.376.2773-.39467.6986-.69333 1.264-.896.5653-.21333 1.296-.32 2.192-.32h2.048v1.584h-1.632c-.4907 0-.8374.08-1.04.24-.192.16-.288.3733-.288.64s.1013.48.304.64c.2026.16.48.24.832.24.3306 0 .6293-.08.896-.24.2773-.1707.48-.4267.608-.768l.416 1.12c-.16.5973-.4747 1.0507-.944 1.36-.4587.2987-1.0667.448-1.824.448zm12.0368-.144v-2.816l.4.464h-2.208c-1.2906 0-2.3093-.2613-3.056-.784-.7466-.53333-1.12-1.29067-1.12-2.272 0-1.04533.3894-1.85067 1.168-2.416.7787-.56533 1.8294-.848 3.152-.848h4.368v8.672zm-6.128 0 2.288-3.296h3.072l-2.144 3.296zm6.128-3.728v-3.296l.4.752h-2c-.4053 0-.72.08-.944.24-.224.14933-.336.39467-.336.736 0 .66133.4214.992 1.264.992h2.016zm-56.3612 21.728v-11.2h9.36v2.448h-6.24v1.808h2.896c1.36533 0 2.40533.288 3.12.864.7253.576 1.088 1.408 1.088 2.496 0 1.12-.4053 2-1.216 2.64-.81067.6293-1.94667.944-3.408.944zm3.12-2.272h2.272c.52267 0 .92267-.1067 1.2-.32.288-.2133.432-.5173.432-.912 0-.7893-.544-1.184-1.632-1.184h-2.272zm9.3515 5.52c-.4587 0-.9227-.0747-1.392-.224-.4587-.1387-.832-.3253-1.12-.56l1.056-2.128c.1813.16.3893.2827.624.368.2453.096.4853.144.72.144.3307 0 .592-.0747.784-.224s.3573-.384.496-.704l.4-1.008.24-.304 2.944-7.28h2.896l-3.744 9.024c-.2987.7467-.6453 1.328-1.04 1.744-.384.4267-.816.7253-1.296.896-.4693.1707-.992.256-1.568.256zm1.184-2.88-3.824-9.04h3.12l2.816 7.008zm5.302-.368 3.984-5.232-.064 1.728-3.824-5.168h3.424l2.144 3.056-1.28.064 2.272-3.12h3.216l-3.824 5.056v-1.664l3.936 5.28h-3.472l-2.24-3.264 1.28.176-2.256 3.088zm10.3684 0v-8.672h7.264v2.416h-4.896l.656-.656v6.912zm12.9491 0v-1.616l-.208-.4v-2.976c0-.48-.1493-.848-.448-1.104-.288-.2667-.752-.4-1.392-.4-.416 0-.8373.0693-1.264.208-.4267.128-.7893.3093-1.088.544l-1.024-2.064c.4907-.32 1.0773-.5653 1.76-.736.6933-.1813 1.3813-.272 2.064-.272 1.408 0 2.496.3253 3.264.976.7787.64 1.168 1.648 1.168 3.024v4.816zm-2.56.144c-.6933 0-1.28-.1173-1.76-.352s-.848-.5547-1.104-.96c-.2453-.4053-.368-.8587-.368-1.36 0-.5333.1333-.992.4-1.376.2773-.3947.6987-.6933 1.264-.896.5653-.2133 1.296-.32 2.192-.32h2.048v1.584h-1.632c-.4907 0-.8373.08-1.04.24-.192.16-.288.3733-.288.64s.1013.48.304.64.48.24.832.24c.3307 0 .6293-.08.896-.24.2773-.1707.48-.4267.608-.768l.416 1.12c-.16.5973-.4747 1.0507-.944 1.36-.4587.2987-1.0667.448-1.824.448zm5.7009-.144.128-2.48c.0746.0107.144.0213.208.032h.176c.2666 0 .4746-.064.624-.192.16-.1387.2773-.3253.352-.56.0853-.2347.144-.5067.176-.816.0426-.32.0693-.6667.08-1.04l.128-3.616h7.84v8.672h-3.04v-6.944l.672.688h-3.472l.64-.72-.096 2.048c-.032.7787-.1014 1.488-.208 2.128-.096.6293-.2507 1.168-.464 1.616-.2134.448-.5067.7947-.88 1.04-.3627.2347-.8267.352-1.392.352-.2027 0-.432-.0213-.688-.064-.2454-.032-.5067-.08-.784-.144zm13.051 0v-6.928l.656.672h-3.456v-2.416h8.608v2.416h-3.456l.672-.672v6.928zm10.4661.144c-1.024 0-1.92-.192-2.688-.576-.7573-.3947-1.3493-.928-1.776-1.6-.416-.6827-.624-1.456-.624-2.32s.2027-1.632.608-2.304c.416-.6827.9867-1.2107 1.712-1.584.7253-.384 1.5413-.576 2.448-.576.8533 0 1.632.176 2.336.528.704.3413 1.264.848 1.68 1.52s.624 1.488.624 2.448c0 .1067-.0053.2293-.016.368s-.0213.2667-.032.384h-6.864v-1.6h5.248l-1.152.448c.0107-.3947-.064-.736-.224-1.024-.1493-.288-.3627-.512-.64-.672-.2667-.16-.5813-.24-.944-.24s-.6827.08-.96.24c-.2667.16-.4747.3893-.624.688-.1493.288-.224.6293-.224 1.024v.464c0 .4267.0853.7947.256 1.104.1813.3093.4373.5493.768.72.3307.16.7253.24 1.184.24.4267 0 .7893-.0587 1.088-.176.3093-.128.6133-.32.912-.576l1.6 1.664c-.416.4587-.928.8107-1.536 1.056-.608.2347-1.328.352-2.16.352zm10.7426 0c-.736 0-1.3653-.16-1.888-.48-.5226-.3307-.9226-.8213-1.2-1.472-.2666-.6613-.4-1.504-.4-2.528 0-1.0347.128-1.8773.384-2.528.256-.6613.64-1.152 1.152-1.472.5227-.32 1.1734-.48 1.952-.48.7894 0 1.504.1867 2.144.56.6507.3627 1.1627.88 1.536 1.552.384.6613.576 1.4507.576 2.368s-.192 1.712-.576 2.384c-.3733.672-.8853 1.1893-1.536 1.552-.64.3627-1.3546.544-2.144.544zm-5.456 2.96v-11.776h2.896v1.472l-.016 2.864.16 2.88v4.56zm4.816-5.376c.3414 0 .6454-.08.912-.24.2774-.16.496-.3947.656-.704.1707-.3093.256-.6827.256-1.12s-.0853-.8107-.256-1.12c-.16-.3093-.3786-.544-.656-.704-.2666-.16-.5706-.24-.912-.24-.3413 0-.6506.08-.928.24-.2666.16-.4853.3947-.656.704-.16.3093-.24.6827-.24 1.12s.08.8107.24 1.12c.1707.3093.3894.544.656.704.2774.16.5867.24.928.24zm5.7159 2.272v-8.672h3.024v4.544l3.632-4.544h2.8v8.672h-3.04v-4.56l-3.6 4.56zm16.3155 0v-2.816l.4.464h-2.2075c-1.2907 0-2.3093-.2613-3.056-.784-.7467-.5333-1.12-1.2907-1.12-2.272 0-1.0453.3893-1.8507 1.168-2.416s1.8293-.848 3.152-.848h4.3675v8.672zm-6.1275 0 2.288-3.296h3.0715l-2.1435 3.296zm6.1275-3.728v-3.296l.4.752h-1.9995c-.4053 0-.72.08-.944.24-.224.1493-.336.3947-.336.736 0 .6613.4213.992 1.264.992h2.0155z" fill="#000"/><path d="m70.3646 13.224c-.896 0-1.7226-.144-2.48-.432-.7573-.288-1.4186-.6933-1.984-1.216-.5546-.5333-.9866-1.152-1.296-1.856-.3093-.704-.464-1.47733-.464-2.32s.1547-1.616.464-2.32c.3094-.704.7414-1.31733 1.296-1.84.5654-.53333 1.2267-.944 1.984-1.232.7574-.288 1.584-.432 2.48-.432.9067 0 1.7334.144 2.48.432.7574.288 1.4134.69867 1.968 1.232.5547.52267.9867 1.136 1.296 1.84.32.704.48 1.47733.48 2.32s-.16 1.62133-.48 2.336c-.3093.704-.7413 1.3173-1.296 1.84-.5546.5227-1.2106.928-1.968 1.216-.7466.288-1.5733.432-2.48.432zm0-2.624c.4267 0 .8214-.0747 1.184-.224.3734-.1493.6934-.3627.96-.64.2774-.288.4907-.62933.64-1.024.16-.39467.24-.832.24-1.312 0-.49067-.08-.928-.24-1.312-.1493-.39467-.3626-.73067-.64-1.008-.2666-.288-.5866-.50667-.96-.656-.3626-.14933-.7573-.224-1.184-.224-.4266 0-.8266.07467-1.2.224-.3626.14933-.6826.368-.96.656-.2666.27733-.48.61333-.64 1.008-.1493.384-.224.82133-.224 1.312 0 .48.0747.91733.224 1.312.16.39467.3734.736.64 1.024.2774.2773.5974.4907.96.64.3734.1493.7734.224 1.2.224zm7.1019 2.4v-8.672h3.024v3.216h3.12v-3.216h3.04v8.672h-3.04v-3.04h-3.12v3.04zm9.7144 0 .128-2.48c.0746.0107.144.0213.208.032h.176c.2666 0 .4746-.064.624-.192.16-.1387.2773-.3253.352-.56.0853-.23467.144-.50667.176-.816.0426-.32.0693-.66667.08-1.04l.128-3.616h7.84v8.672h-3.04v-6.944l.672.688h-3.472l.64-.72-.096 2.048c-.032.77867-.1014 1.488-.208 2.128-.096.6293-.2507 1.168-.464 1.616-.2134.448-.5067.7947-.88 1.04-.3627.2347-.8267.352-1.392.352-.2027 0-.432-.0213-.688-.064-.2454-.032-.5067-.08-.784-.144zm16.2511 0v-1.616l-.208-.4v-2.976c0-.48-.149-.848-.448-1.104-.288-.26667-.752-.4-1.392-.4-.416 0-.837.06933-1.264.208-.4268.128-.7895.30933-1.0881.544l-1.024-2.064c.4906-.32 1.0773-.56533 1.76-.736.6931-.18133 1.3811-.272 2.0641-.272 1.408 0 2.496.32533 3.264.976.779.64 1.168 1.648 1.168 3.024v4.816zm-2.56.144c-.693 0-1.2801-.1173-1.7601-.352s-.848-.5547-1.104-.96c-.2454-.4053-.368-.8587-.368-1.36 0-.53333.1333-.992.4-1.376.2773-.39467.6986-.69333 1.264-.896.5653-.21333 1.2961-.32 2.1921-.32h2.048v1.584h-1.632c-.491 0-.837.08-1.04.24-.192.16-.288.3733-.288.64s.101.48.304.64.48.24.832.24c.331 0 .629-.08.896-.24.277-.1707.48-.4267.608-.768l.416 1.12c-.16.5973-.475 1.0507-.944 1.36-.459.2987-1.067.448-1.824.448zm6.581-.144v-8.672h3.024v4.544l3.632-4.544h2.8v8.672h-3.04v-4.56l-3.6 4.56zm4.512-9.504c-1.024 0-1.782-.21333-2.272-.64-.48-.43733-.726-1.104-.736-2.000001h1.968c.01.352001.09.629331.24.832001.16.192.421.288.784.288.362 0 .629-.096.8-.288.17-.20267.256-.48.256-.832001h2c0 .896001-.251 1.562671-.752 2.000001-.491.42667-1.254.64-2.288.64zm6.348 9.504v-8.672h3.024v3.216h3.12v-3.216h3.04v8.672h-3.04v-3.04h-3.12v3.04z" fill="#4aa9ff"/></svg>